<svg width="65" height="66" viewBox="0 0 65 66" fill="none" xmlns="http://www.w3.org/2000/svg">
<circle cx="32.5" cy="33.4368" r="32.5" fill="#0156FF"/>
<path d="M32.9121 21.3291C26.1068 21.3291 20.5703 26.8656 20.5703 33.6709V38.7841C20.5703 40.0479 21.6774 41.0759 23.0387 41.0759H24.2728C24.6002 41.0759 24.9141 40.9459 25.1455 40.7145C25.377 40.483 25.507 40.1691 25.507 39.8418V33.4944C25.507 33.1671 25.377 32.8531 25.1455 32.6217C24.9141 32.3902 24.6002 32.2602 24.2728 32.2602H23.1522C23.8384 27.4839 27.9482 23.7975 32.9121 23.7975C37.8759 23.7975 41.9858 27.4839 42.672 32.2602H41.5513C41.224 32.2602 40.9101 32.3902 40.6786 32.6217C40.4472 32.8531 40.3172 33.1671 40.3172 33.4944V41.0759C40.3172 42.4372 39.2101 43.5443 37.8488 43.5443H35.3804V42.3101H30.4437V46.0126H37.8488C40.5714 46.0126 42.7855 43.7985 42.7855 41.0759C44.1468 41.0759 45.2539 40.0479 45.2539 38.7841V33.6709C45.2539 26.8656 39.7173 21.3291 32.9121 21.3291Z" fill="white"/>
</svg>
